<svg width="1200" height="615" viewBox="0 0 1200 615" fill="none" xmlns="http://www.w3.org/2000/svg">
<g clip-path="url(#clip0_2040_333)">
<rect width="1200" height="615" fill="url(#paint0_linear_2040_333)"/>
<g opacity="0.9">
<path d="M1295.08 415.579C1341.56 415.579 1383.58 390.742 1413.95 350.704C1444.32 310.666 1463.08 255.392 1463.08 194.373C1463.08 133.353 1444.32 78.0786 1413.95 38.0411C1383.58 -1.99691 1341.56 -26.8345 1295.08 -26.8345C1248.6 -26.8345 1206.59 -1.99691 1176.21 38.0411C1145.84 78.0786 1127.08 133.353 1127.08 194.373C1127.08 255.392 1145.84 310.666 1176.21 350.704C1206.59 390.742 1248.6 415.579 1295.08 415.579Z" stroke="#F1C9C9" strokeWidth="1.66602"/>
<path d="M1269.07 415.579C1315.55 415.579 1357.57 390.742 1387.94 350.704C1418.31 310.666 1437.07 255.392 1437.07 194.373C1437.07 133.353 1418.31 78.0786 1387.94 38.0411C1357.57 -1.99691 1315.55 -26.8345 1269.07 -26.8345C1222.6 -26.8345 1180.58 -1.99691 1150.21 38.0411C1119.84 78.0786 1101.08 133.353 1101.08 194.373C1101.08 255.392 1119.84 310.666 1150.21 350.704C1180.58 390.742 1222.6 415.579 1269.07 415.579Z" stroke="#F1C9C9" strokeWidth="1.66602"/>
<path d="M1241.21 415.579C1287.69 415.579 1329.71 390.742 1360.08 350.704C1390.45 310.666 1409.21 255.392 1409.21 194.373C1409.21 133.353 1390.45 78.0786 1360.08 38.0411C1329.71 -1.99691 1287.69 -26.8345 1241.21 -26.8345C1194.73 -26.8345 1152.71 -1.99691 1122.34 38.0411C1091.97 78.0786 1073.21 133.353 1073.21 194.373C1073.21 255.392 1091.97 310.666 1122.34 350.704C1152.71 390.742 1194.73 415.579 1241.21 415.579Z" stroke="#F1C9C9" strokeWidth="1.66602"/>
<path d="M1200.34 400.115C1246.82 400.115 1288.84 375.278 1319.21 335.24C1349.58 295.202 1368.34 239.928 1368.34 178.908C1368.34 117.889 1349.58 62.6143 1319.21 22.5768C1288.84 -17.4613 1246.82 -42.2988 1200.34 -42.2988C1153.86 -42.2988 1111.85 -17.4613 1081.48 22.5768C1051.11 62.6143 1032.34 117.889 1032.34 178.908C1032.34 239.928 1051.11 295.202 1081.48 335.24C1111.85 375.278 1153.86 400.115 1200.34 400.115Z" stroke="#F1C9C9" strokeWidth="1.66602"/>
<path d="M1179.8 400.115C1226.28 400.115 1268.3 375.278 1298.67 335.24C1329.04 295.202 1347.8 239.928 1347.8 178.908C1347.8 117.889 1329.04 62.6143 1298.67 22.5768C1268.3 -17.4613 1226.28 -42.2988 1179.8 -42.2988C1133.32 -42.2988 1091.31 -17.4613 1060.93 22.5768C1030.56 62.6143 1011.8 117.889 1011.8 178.908C1011.8 239.928 1030.56 295.202 1060.93 335.24C1091.31 375.278 1133.32 400.115 1179.8 400.115Z" stroke="#F1C9C9" strokeWidth="1.66602"/>
</g>
<circle opacity="0.3" cx="1167.19" cy="187.589" r="19.5388" transform="rotate(-90 1167.19 187.589)" fill="url(#paint1_linear_2040_333)" stroke="url(#paint2_linear_2040_333)" strokeWidth="0.201086"/>
</g>
<defs>
<linearGradient id="paint0_linear_2040_333" x1="1220.64" y1="1.51504e-05" x2="-41.7101" y2="575.071" gradientUnits="userSpaceOnUse">
<stop stop-color="#04203F"/>
<stop offset="1" stop-color="#00346E"/>
</linearGradient>
<linearGradient id="paint1_linear_2040_333" x1="1158.26" y1="167.95" x2="1182.72" y2="197.938" gradientUnits="userSpaceOnUse">
<stop stop-color="white"/>
<stop offset="1" stop-color="white" stop-opacity="0"/>
</linearGradient>
<linearGradient id="paint2_linear_2040_333" x1="1147.56" y1="172.642" x2="1189.02" y2="186.182" gradientUnits="userSpaceOnUse">
<stop offset="0.0572917" stop-color="white"/>
<stop offset="0.244792" stop-color="#6CE5FF"/>
<stop offset="0.651042" stop-color="#B570FE"/>
<stop offset="0.869792" stop-color="white"/>
</linearGradient>
<clipPath id="clip0_2040_333">
<rect width="1200" height="615" fill="white"/>
</clipPath>
</defs>
</svg>
