<svg width="169" height="163" viewBox="0 0 169 163" fill="none" xmlns="http://www.w3.org/2000/svg">
<path d="M183.663 19.5673C181.35 19.5673 179.527 21.4074 179.527 23.7133C179.527 24.5751 179.784 25.367 180.228 26.0192L141.079 82.9448C140.822 82.8516 140.541 82.805 140.261 82.805L136.17 65.6155C139.326 61.8655 141.873 57.5798 143.767 52.9214C148.558 41.0658 148.418 28.0223 143.369 16.2598C138.344 4.4974 129.018 -4.63306 117.075 -9.40791C105.179 -14.1828 92.0899 -14.043 80.3101 -9.03524C68.4836 -4.00417 59.345 5.28932 54.5302 17.1682C49.7389 29.0471 49.8791 42.0673 54.9276 53.8298C56.7272 58.1155 59.158 62.0519 62.0562 65.5456L48.1028 82.5954C47.5886 82.3159 46.9575 82.1761 46.3265 82.1761C44.8774 82.1761 43.6386 82.8982 42.844 83.9929L29.4048 80.336C28.8438 78.7289 27.348 77.5876 25.5249 77.5876C23.2344 77.5876 21.3646 79.451 21.3646 81.7336C21.3646 82.0364 21.388 82.3392 21.4815 82.6187L6.45293 97.8283C6.03222 97.642 5.58815 97.5721 5.1207 97.5721C2.80681 97.5721 0.937012 99.4122 0.937012 101.718C0.937012 104.024 2.80681 105.841 5.1207 105.841C7.43458 105.841 9.25763 104.001 9.25763 101.718C9.25763 101.206 9.18752 100.717 8.97716 100.274L23.6551 85.4137C24.2161 85.7165 24.8471 85.8795 25.5249 85.8795C27.0441 85.8795 28.353 85.0643 29.0775 83.8764L42.3531 87.4634C42.8206 89.187 44.4333 90.4448 46.3265 90.4448C48.617 90.4448 50.4634 88.6047 50.4634 86.2988C50.4634 85.9727 50.4167 85.6699 50.3699 85.3671L64.4168 68.1776C69.0679 73.0457 74.7708 76.9121 81.2217 79.4975C87.0181 81.8267 93.0715 82.9913 99.1718 82.9913C103.005 82.9913 106.838 82.5255 110.624 81.5705L143.229 157.805C144.047 159.669 145.52 161.089 147.413 161.835C148.301 162.207 149.282 162.394 150.217 162.394C151.222 162.394 152.251 162.184 153.209 161.788C155.055 160.996 156.481 159.529 157.253 157.642C158.024 155.779 157.977 153.706 157.206 151.866L124.624 75.6777C127.826 73.6978 130.725 71.3919 133.296 68.7832L136.942 84.1094C136.264 84.8547 135.843 85.833 135.843 86.9277C135.843 89.2103 137.666 91.0736 139.98 91.0736C142.294 91.0736 144.141 89.2103 144.141 86.9277C144.141 86.3221 144 85.7398 143.767 85.2274L183.219 27.7894C183.36 27.8359 183.5 27.8359 183.663 27.8359C185.977 27.8359 187.824 25.9959 187.824 23.7133C187.824 21.4307 185.977 19.5673 183.663 19.5673ZM134.347 58.0223C133.529 59.3034 132.618 60.5379 131.636 61.7258C128.738 65.2196 125.256 68.2941 121.259 70.7398C119.506 71.8345 117.613 72.7895 115.673 73.628C113.616 74.4898 111.559 75.1885 109.432 75.7242C106.067 76.586 102.608 77.0053 99.2185 77.0053C87.5089 77.0053 76.2199 72.114 68.2265 63.5192C67.4085 62.6574 66.6372 61.7724 65.9127 60.8174C63.7156 58.0223 61.8458 54.9012 60.3967 51.5006C51.3048 30.2117 61.3083 5.52224 82.6474 -3.53833C104.01 -12.6222 128.761 -2.67653 137.877 18.589C140.144 23.9462 141.242 29.513 141.242 34.9866C141.242 43.1854 138.812 51.1978 134.347 57.9991V58.0223Z" fill="#D6D6D6"/>
<path d="M133.576 54.7853L124.578 16.8893C125.255 16.1439 125.699 15.1424 125.699 14.0476C125.699 11.765 123.853 9.90167 121.563 9.90167C119.272 9.90167 117.402 11.765 117.402 14.0476C117.402 14.8396 117.613 15.6082 118.033 16.2371L94.6841 58.7216C94.6841 58.7216 94.427 58.6751 94.3335 58.6751C93.3051 58.6751 92.3469 59.0477 91.6223 59.6999L77.7624 53.3645C77.295 51.6409 75.7056 50.4064 73.7891 50.4064C71.4986 50.4064 69.6521 52.2465 69.6521 54.5291C69.6521 55.0182 69.7223 55.4841 69.8859 55.9266L67.4084 58.9546C65.4918 56.439 63.8558 53.644 62.5469 50.5927C53.9692 30.4918 63.3883 7.17651 83.5588 -1.39494C88.5605 -3.5378 93.8427 -4.58594 99.1483 -4.58594C104.173 -4.58594 109.175 -3.63097 113.966 -1.69773C118.921 0.282084 123.315 3.147 126.985 6.73396C130.654 10.3442 133.646 14.6532 135.726 19.5213C140.798 31.3769 139.606 44.3738 133.576 54.7853Z" fill="#D6D6D6"/>
<path d="M130.912 58.8151C127.569 63.3104 123.199 67.1303 118.033 69.9021H118.01C116.935 70.4844 115.86 71.0201 114.714 71.4859C113.546 71.9751 112.354 72.4176 111.185 72.7903C96.1567 77.5651 79.9595 72.93 69.699 61.7033L72.4102 58.4191C72.8543 58.5822 73.3217 58.6753 73.7892 58.6753C75.2149 58.6753 76.4303 57.9999 77.1782 56.9284L90.1499 62.8912C90.1967 65.1505 92.0665 66.9673 94.3336 66.9673C96.6008 66.9673 98.4939 65.1039 98.4939 62.8213C98.4939 61.9362 98.1901 61.121 97.746 60.4455L120.978 18.124C120.978 18.124 121.165 18.1706 121.282 18.1706L130.912 58.8151Z" fill="#D6D6D6"/>
</svg>
