<svg width="140" height="150" viewBox="0 0 187 176" fill="none" xmlns="http://www.w3.org/2000/svg">
<path d="M182.726 32.4599C180.413 32.4599 178.59 34.2999 178.59 36.6059C178.59 37.4677 178.847 38.2596 179.291 38.9118L140.142 95.8373C139.885 95.7442 139.604 95.6976 139.324 95.6976L135.233 78.5081C138.389 74.7581 140.936 70.4724 142.83 65.814C147.621 53.9584 147.481 40.9149 142.432 29.1524C137.407 17.39 128.081 8.25952 116.138 3.48467C104.241 -1.29019 91.1529 -1.15044 79.3731 3.85734C67.5466 8.8884 58.408 18.1819 53.5932 30.0608C48.8019 41.9397 48.9421 54.9599 53.9906 66.7224C55.7902 71.0081 58.221 74.9444 61.1192 78.4382L47.1658 95.4879C46.6516 95.2084 46.0205 95.0687 45.3895 95.0687C43.9404 95.0687 42.7016 95.7907 41.907 96.8855L28.4677 93.2286C27.9068 91.6215 26.411 90.4802 24.5879 90.4802C22.2974 90.4802 20.4276 92.3435 20.4276 94.6261C20.4276 94.9289 20.451 95.2317 20.5445 95.5112L5.51592 110.721C5.09521 110.535 4.65113 110.465 4.18368 110.465C1.8698 110.465 0 112.305 0 114.611C0 116.917 1.8698 118.733 4.18368 118.733C6.49756 118.733 8.32062 116.893 8.32062 114.611C8.32062 114.098 8.2505 113.609 8.04015 113.167L22.7181 98.3063C23.279 98.6091 23.9101 98.7721 24.5879 98.7721C26.1071 98.7721 27.416 97.9569 28.1405 96.769L41.4161 100.356C41.8836 102.08 43.4963 103.337 45.3895 103.337C47.68 103.337 49.5264 101.497 49.5264 99.1914C49.5264 98.8653 49.4797 98.5625 49.4329 98.2597L63.4798 81.0702C68.1309 85.9382 73.8338 89.8047 80.2846 92.3901C86.081 94.7193 92.1345 95.8839 98.2348 95.8839C102.068 95.8839 105.901 95.4181 109.687 94.4631L142.292 170.698C143.11 172.561 144.582 173.982 146.476 174.727C147.364 175.1 148.345 175.286 149.28 175.286C150.285 175.286 151.314 175.077 152.272 174.681C154.118 173.889 155.544 172.421 156.315 170.535C157.087 168.671 157.04 166.598 156.269 164.758L123.687 88.5702C126.889 86.5904 129.788 84.2845 132.359 81.6758L136.005 97.0019C135.327 97.7473 134.906 98.7255 134.906 99.8203C134.906 102.103 136.729 103.966 139.043 103.966C141.357 103.966 143.204 102.103 143.204 99.8203C143.204 99.2147 143.063 98.6324 142.83 98.1199L182.282 40.6819C182.423 40.7285 182.563 40.7285 182.726 40.7285C185.04 40.7285 186.887 38.8885 186.887 36.6059C186.887 34.3232 185.04 32.4599 182.726 32.4599ZM133.41 70.9149C132.592 72.196 131.681 73.4305 130.699 74.6183C127.801 78.1121 124.319 81.1867 120.322 83.6323C118.569 84.7271 116.676 85.682 114.736 86.5205C112.679 87.3823 110.622 88.0811 108.495 88.6168C105.13 89.4786 101.671 89.8979 98.2815 89.8979C86.5719 89.8979 75.2829 85.0066 67.2895 76.4118C66.4715 75.55 65.7002 74.6649 64.9756 73.71C62.7786 70.9149 60.9088 67.7938 59.4597 64.3932C50.3678 43.1043 60.3713 18.4148 81.7104 9.35424C103.073 0.270374 127.824 10.216 136.94 31.4816C139.207 36.8388 140.305 42.4055 140.305 47.8792C140.305 56.0779 137.875 64.0904 133.41 70.8916V70.9149Z" fill="#D6D6D6"/>
<path d="M132.639 67.6779L123.641 29.7818C124.318 29.0365 124.762 28.0349 124.762 26.9402C124.762 24.6576 122.916 22.7942 120.626 22.7942C118.335 22.7942 116.465 24.6576 116.465 26.9402C116.465 27.7321 116.676 28.5008 117.096 29.1297L93.7471 71.6142C93.7471 71.6142 93.49 71.5676 93.3965 71.5676C92.3681 71.5676 91.4099 71.9403 90.6853 72.5925L76.8254 66.2571C76.358 64.5335 74.7686 63.299 72.8521 63.299C70.5616 63.299 68.7151 65.139 68.7151 67.4217C68.7151 67.9108 68.7853 68.3766 68.9489 68.8192L66.4714 71.8471C64.5548 69.3316 62.9187 66.5366 61.6099 63.4853C53.0322 43.3843 62.4513 20.0691 82.6218 11.4976C87.6235 9.35478 92.9057 8.30664 98.2113 8.30664C103.236 8.30664 108.238 9.26161 113.029 11.1948C117.984 13.1747 122.378 16.0396 126.048 19.6265C129.717 23.2368 132.709 27.5458 134.789 32.4138C139.861 44.2694 138.669 57.2664 132.639 67.6779Z" fill="#D6D6D6"/>
<path d="M129.975 71.7077C126.632 76.203 122.262 80.0229 117.096 82.7946H117.073C115.998 83.3769 114.923 83.9127 113.777 84.3785C112.609 84.8676 111.417 85.3102 110.248 85.6829C95.2197 90.4577 79.0225 85.8226 68.762 74.5959L71.4732 71.3117C71.9173 71.4748 72.3847 71.5679 72.8522 71.5679C74.2779 71.5679 75.4933 70.8925 76.2412 69.821L89.2129 75.7838C89.2597 78.0431 91.1295 79.8599 93.3966 79.8599C95.6637 79.8599 97.5569 77.9965 97.5569 75.7139C97.5569 74.8288 97.2531 74.0136 96.809 73.3381L120.041 31.0166C120.041 31.0166 120.228 31.0632 120.345 31.0632L129.975 71.7077Z" fill="#D6D6D6"/>
</svg>
