<svg width="27" height="27" viewBox="0 0 27 27" fill="none" xmlns="http://www.w3.org/2000/svg">
	<path d="M22.3407 5.65719C21.8123 5.12697 21.1844 4.70626 20.4931 4.4192C19.8018 4.13214 19.0606 3.98437 18.312 3.98438C17.5635 3.98437 16.8223 4.13214 16.1309 4.4192C15.4396 4.70626 14.8118 5.12697 14.2834 5.65719L13.4724 6.47872L12.6614 5.65719C12.133 5.12697 11.5051 4.70626 10.8138 4.4192C10.1225 4.13214 9.38128 3.98438 8.63273 3.98438C7.88417 3.98438 7.14298 4.13214 6.45165 4.4192C5.76033 4.70626 5.13247 5.12697 4.60408 5.65719C2.37121 7.89006 2.23429 11.6607 5.04644 14.5255L13.4724 22.9514L21.8983 14.5255C24.7104 11.6607 24.5735 7.89006 22.3407 5.65719Z" stroke="white" stroke-width="1.83565" stroke-linecap="round" stroke-linejoin="round" />
	<path d="M13.4722 6.4787L10.1755 9.78587C9.75876 10.2061 9.5249 10.7739 9.5249 11.3657C9.5249 11.9576 9.75876 12.5254 10.1755 12.9456V12.9456C10.5957 13.3624 11.1636 13.5962 11.7554 13.5962C12.3472 13.5962 12.9151 13.3624 13.3353 12.9456L15.7156 10.6179C16.3072 10.0326 17.1057 9.70433 17.9379 9.70433C18.7701 9.70433 19.5687 10.0326 20.1603 10.6179L22.688 13.1457" stroke="white" stroke-width="1.83565" stroke-linecap="round" stroke-linejoin="round" />
	<path d="M19.7915 16.6319L17.6851 14.5255" stroke="white" stroke-width="1.83565" stroke-linecap="round" stroke-linejoin="round" />
	<path d="M16.6319 19.7917L14.5254 17.6852" stroke="white" stroke-width="1.83565" stroke-linecap="round" stroke-linejoin="round" />
</svg>
