<svg width="12" height="18" viewBox="0 0 12 18" fill="none" xmlns="http://www.w3.org/2000/svg">
<path d="M6.00008 0.666992C2.77508 0.666992 0.166748 3.27533 0.166748 6.50033C0.166748 7.95033 0.583415 9.30866 1.34175 10.5337C2.13341 11.817 3.17508 12.917 3.97508 14.2003C4.36675 14.8253 4.65008 15.4087 4.95008 16.0837C5.16675 16.542 5.34175 17.3337 6.00008 17.3337C6.65841 17.3337 6.83342 16.542 7.04175 16.0837C7.35008 15.4087 7.62508 14.8253 8.01675 14.2003C8.81675 12.9253 9.85841 11.8253 10.6501 10.5337C11.4167 9.30866 11.8334 7.95033 11.8334 6.50033C11.8334 3.27533 9.22508 0.666992 6.00008 0.666992ZM6.00008 8.79199C4.85008 8.79199 3.91675 7.85866 3.91675 6.70866C3.91675 5.55866 4.85008 4.62533 6.00008 4.62533C7.15008 4.62533 8.08342 5.55866 8.08342 6.70866C8.08342 7.85866 7.15008 8.79199 6.00008 8.79199Z" fill="#116ACC"/>
</svg>
