<svg width="150" height="120" viewBox="0 0 209 167" fill="none" xmlns="http://www.w3.org/2000/svg">
<path d="M90.556 61.1645C90.556 61.1645 87.458 63.1566 88.2916 65.6954C89.6788 69.918 95.085 66.8325 95.085 66.8325L95.257 60.9609H90.559L90.556 61.1645Z" fill="#D6D6D6"/>
<path d="M86.027 83.8186C71.5483 79.4768 71.968 64.7877 72.3323 60.9606H33.1716V46.67C33.1716 29.4363 47.2073 15.4684 64.5246 15.4684C80.9501 15.4684 94.4146 28.0404 95.7552 44.0439L96.2186 28.3166H107.506C100.331 11.6588 83.7887 0 64.5217 0C38.674 0 17.7195 20.9794 17.7195 46.8619V61.1002C7.74937 62.2315 0 70.6971 0 80.9803V146.492C0 157.549 8.95301 166.512 19.9956 166.512H109.048C120.09 166.512 129.04 157.549 129.04 146.492V126.502L95.0849 84.9528C95.0849 84.9528 90.5822 85.1855 86.027 83.8186ZM74.0663 108.916V134.205C74.0663 139.483 69.7938 143.761 64.5246 143.761C59.2554 143.761 54.9829 139.483 54.9829 134.205V108.916C52.4649 106.438 50.8969 102.992 50.8969 99.1737C50.8969 91.6357 56.9997 85.5257 64.5304 85.5257C72.0583 85.5257 78.161 91.6386 78.161 99.1737C78.1523 102.992 76.5844 106.441 74.0663 108.916Z" fill="#D6D6D6"/>
<path d="M154.41 35.6451L100.22 30.5732L98.2849 66.2911C104.889 63.5226 109.706 57.5492 111.146 55.6066C109.456 51.7707 110.417 47.1235 113.804 44.3142C117.893 40.9204 123.961 41.4875 127.35 45.5822C130.742 49.674 130.174 55.7433 126.082 59.1371C125.998 59.2098 125.905 59.2679 125.817 59.3348C116.13 74.748 103.435 80.8493 97.6029 82.9548L151.688 148.243L208.583 101.046L154.41 35.6451Z" fill="#D6D6D6"/>
<path d="M85.9571 68.8881C82.0518 64.1711 92.8205 54.3706 92.8205 54.3706V41.9092C74.5181 52.1691 69.6773 72.2063 81.2533 78.6798C103.796 91.2779 123.334 58.4827 123.334 58.4827L123.142 58.3402C123.663 58.0872 124.173 57.7877 124.643 57.4009C127.77 54.8039 128.207 50.1625 125.61 47.0333C123.019 43.9042 118.383 43.4679 115.25 46.0649C112.262 48.5456 111.767 52.8787 113.985 55.9904L113.921 55.9933C98.7396 73.7243 89.8682 73.608 85.9571 68.8881Z" fill="#D6D6D6"/>
</svg>
