<svg width="25" height="25" viewBox="0 0 25 25" fill="none" xmlns="http://www.w3.org/2000/svg">
<path d="M22.6673 11.5374V8.70426C22.6673 7.57091 22.6673 7.00424 22.4468 6.57136C22.2528 6.19059 21.9432 5.88101 21.5624 5.68699C21.1295 5.46643 20.5629 5.46643 19.4295 5.46643H5.66874C4.53539 5.46643 3.96872 5.46643 3.53584 5.68699C3.15506 5.88101 2.84549 6.19059 2.65147 6.57136C2.43091 7.00424 2.43091 7.57091 2.43091 8.70426V12.3468C2.43091 13.4802 2.43091 14.0468 2.65147 14.4797C2.84549 14.8605 3.15506 15.1701 3.53584 15.3641C3.96872 15.5846 4.53539 15.5846 5.66874 15.5846H11.5373M12.5491 10.5255H12.5542M17.6082 10.5255H17.6133M7.49001 10.5255H7.49507M19.8848 17.6083V15.8376C19.8848 14.8597 19.0921 14.0669 18.1141 14.0669C17.1362 14.0669 16.3435 14.8597 16.3435 15.8376V17.6083M12.8021 10.5255C12.8021 10.6652 12.6888 10.7785 12.5491 10.7785C12.4094 10.7785 12.2962 10.6652 12.2962 10.5255C12.2962 10.3858 12.4094 10.2726 12.5491 10.2726C12.6888 10.2726 12.8021 10.3858 12.8021 10.5255ZM17.8612 10.5255C17.8612 10.6652 17.7479 10.7785 17.6082 10.7785C17.4685 10.7785 17.3553 10.6652 17.3553 10.5255C17.3553 10.3858 17.4685 10.2726 17.6082 10.2726C17.7479 10.2726 17.8612 10.3858 17.8612 10.5255ZM7.74297 10.5255C7.74297 10.6652 7.62972 10.7785 7.49001 10.7785C7.35031 10.7785 7.23706 10.6652 7.23706 10.5255C7.23706 10.3858 7.35031 10.2726 7.49001 10.2726C7.62972 10.2726 7.74297 10.3858 7.74297 10.5255ZM16.1917 21.6556H20.0366C20.6033 21.6556 20.8866 21.6556 21.103 21.5453C21.2934 21.4483 21.4482 21.2935 21.5452 21.1031C21.6555 20.8867 21.6555 20.6033 21.6555 20.0367V19.2272C21.6555 18.6605 21.6555 18.3772 21.5452 18.1607C21.4482 17.9704 21.2934 17.8156 21.103 17.7186C20.8866 17.6083 20.6033 17.6083 20.0366 17.6083H16.1917C15.625 17.6083 15.3417 17.6083 15.1252 17.7186C14.9348 17.8156 14.7801 17.9704 14.683 18.1607C14.5728 18.3772 14.5728 18.6605 14.5728 19.2272V20.0367C14.5728 20.6033 14.5728 20.8867 14.683 21.1031C14.7801 21.2935 14.9348 21.4483 15.1252 21.5453C15.3417 21.6556 15.625 21.6556 16.1917 21.6556Z" stroke="white" stroke-width="2.00437" stroke-linecap="round" stroke-linejoin="round"/>
</svg>
